<svg xmlns="http://www.w3.org/2000/svg" viewBox="0 0 217.75 487.86">
<path d="M141.68,28.6c-16.62-1.85-34.06-0.52-50.75-0.13c-16.26,0.37-31.79,1.97-47.94,3.57c-15.01,1.48-26.66-5.16-36.77-15.44
	c-1.73-1.76-3.75-3.26-5.34-5.13c-0.71-0.84-1.05-2.41-0.8-3.47c0.16-0.66,1.71-1.36,2.67-1.4c25.46-1.05,50.94-1.64,76.42-2.11
	c12.74-0.23,25.48-0.44,38.23-0.66c8.8-0.15,18.2-1.22,27.09-3c7.6-1.52,12.39-0.89,19.75,1.48c10.64,3.43,23.33,10.64,16.09,23.45
	c-10.6,18.76-8.63,42.61-9.72,63.42c-1.62,30.98-2.72,61.96-4.2,92.9c-0.22,4.62,1.11,7.01,5.6,9.01
	c43.17,19.25,32.24,76.62,12.05,108.79c-2.85,4.54-6.99,8.27-10.86,12.7c10.89,7.51,21.55,13.69,29.35,24.63
	c7.65,10.74,12.71,23.33,14.48,36.4c4.26,31.43-10.61,72.07-36.7,91.2c-11.24,8.24-24.09,13.7-37.38,17.69
	c-22.03,6.6-48.16,8.39-69.3-1.92c-21.22-10.34-42.52-31.37-37.86-57.05c2.39-13.13,8.85-25.37,17.76-35.24
	c7.64-8.46,17.36-14.8,27.74-19.37c5.24-2.31,10.67-4.18,16.19-5.69c4.16-1.13,11.43-4.17,15.53-2.17
	c14.74,7.2-9.07,18.85-13.84,22.62c-16.34,12.93-35.63,28.98-35.22,51.86c0.22,12.46,6.05,26.9,19.05,30.19
	c14.56,3.69,33.32-2.38,46.43-8.7c20.98-10.13,36.96-28.78,46.07-50.01c4.53-10.57,7.67-21.88,9.01-33.32
	c1.26-10.75,2.2-22.36-3.11-32.25c-4.3-8-13.42-16.96-23.18-16.25c-9.92,0.72-16.99-3.38-21.5-12.44c-1.48-2.97-3.48-5.79-4.34-8.93
	c-0.5-1.8,0.09-5.07,1.4-6.01c12.85-9.29,23.31-22.13,28.7-37.31c6.43-18.1,12.38-38.17,4.38-56.76c1.58,3.68,0.79,10.18,0.71,14.13
	c-0.11,4.94-0.59,9.88-1.42,14.75c-1.7,9.98-4.87,19.7-9.38,28.76c-3.68,7.38-8.78,17.91-16.24,21.91
	c-9.33,4.99-19.44,6.96-29.9,4.94c-14.92-2.87-26.53-11.39-37.25-21.56c-8.1-7.69-16.03-18.34-15.52-30.02
	c1.32-30.37,36.51-43.42,61.27-49.23c2.94-0.69,5.89-1.31,8.85-1.88c3.38-0.65,4.25-1.65,4.46-4.94c0.7-11.23,1.99-22.43,2.72-33.66
	c0.51-7.91,0.42-15.85,0.71-23.78c0.34-9.39,0.72-18.77,1.21-28.15c0.71-13.45,1.43-26.9,2.35-40.33
	c0.45-6.62,1.35-13.21,2.01-19.82C141.61,32.78,141.64,30.7,141.68,28.6z M130.34,209.56c-0.21-0.12-0.44-0.2-0.7-0.24
	c-1.16-0.17-2.28,0.38-3.32,0.92c-10.3,5.36-20.89,11.55-28.87,20.35c-5.05,5.58-10.21,12.96-10.52,20.75
	c-0.24,6,3.68,13.41,10.43,12.84c12.38-1.04,21.76-11.73,27.11-22.09C126.92,237.37,136.76,213.17,130.34,209.56z"/>
</svg>
